<!DOCTYPE svg PUBLIC "-//W3C//DTD SVG 1.1//EN" "http://www.w3.org/Graphics/SVG/1.1/DTD/svg11.dtd">
<!-- Uploaded to: SVG Repo, www.svgrepo.com, Transformed by: SVG Repo Mixer Tools -->
<svg version="1.1" id="Capa_1" xmlns="http://www.w3.org/2000/svg" xmlns:xlink="http://www.w3.org/1999/xlink" viewBox="0 0 410.426 410.426" xml:space="preserve" width="800px" height="800px" fill="#7ccfd5" stroke="#7ccfd5">
<g id="SVGRepo_bgCarrier" stroke-width="0"/>
<g id="SVGRepo_tracerCarrier" stroke-linecap="round" stroke-linejoin="round"/>
<g id="SVGRepo_iconCarrier"> <g> <g> <path d="M293.415,139.487h-41.52c-5.166,0-9.368,4.202-9.368,9.367v125.971c0,6.144,2.271,9.006,7.149,9.006 c2.584,0,5.294-2.021,6.451-2.884l2.369-1.746c25.272-18.613,38.899-28.678,40.503-29.914c2.358-1.818,3.782-2.915,3.782-10.982 v-89.451C302.782,143.689,298.58,139.487,293.415,139.487z M294.539,224.767h-5.635v-13.108h5.635V224.767z M296.567,203.452 c0,1.816-1.473,3.289-3.289,3.289h-41.246c-1.816,0-3.289-1.473-3.289-3.289v-54.073c0-1.816,1.473-3.289,3.289-3.289h41.246 c1.816,0,3.289,1.473,3.289,3.289V203.452z"/> <path d="M336.563,124.862c0.2-0.988,0.307-2.011,0.307-3.058c0-8.445-6.846-15.291-15.291-15.291H27.93 c-8.445,0-15.29,6.846-15.29,15.291c0,1.047,0.106,2.07,0.307,3.058H336.563z"/> <path d="M120.929,257.962c-19.334,0-35.007,15.673-35.007,35.007c0,19.334,15.673,35.006,35.007,35.006 c19.333,0,35.007-15.673,35.007-35.006C155.936,273.635,140.262,257.962,120.929,257.962z M120.929,314.209 c-11.731,0-21.241-9.51-21.241-21.24c0-11.731,9.51-21.241,21.241-21.241c11.73,0,21.24,9.51,21.24,21.241 C142.169,304.699,132.66,314.209,120.929,314.209z"/> <circle cx="120.929" cy="292.969" r="10.533"/> <circle cx="120.929" cy="277.482" r="2.943"/> <circle cx="120.929" cy="308.456" r="2.943"/> <circle cx="105.442" cy="292.969" r="2.943"/> <circle cx="136.416" cy="292.969" r="2.943"/> <circle cx="109.978" cy="282.018" r="2.943"/> <circle cx="131.88" cy="303.92" r="2.943"/> <circle cx="109.978" cy="303.92" r="2.943"/> <circle cx="131.88" cy="282.018" r="2.943"/> <path d="M333.483,257.962c-19.334,0-35.007,15.673-35.007,35.007c0,19.334,15.673,35.006,35.007,35.006 c19.333,0,35.006-15.673,35.006-35.006C368.489,273.635,352.816,257.962,333.483,257.962z M333.483,314.209 c-11.731,0-21.241-9.51-21.241-21.24c0-11.731,9.51-21.241,21.241-21.241c11.73,0,21.24,9.51,21.24,21.241 C354.723,304.699,345.213,314.209,333.483,314.209z"/> <circle cx="333.483" cy="292.969" r="10.533"/> <circle cx="333.483" cy="277.482" r="2.943"/> <circle cx="333.483" cy="308.456" r="2.943"/> <circle cx="317.996" cy="292.969" r="2.943"/> <circle cx="348.969" cy="292.969" r="2.943"/> <circle cx="322.531" cy="282.018" r="2.943"/> <circle cx="344.434" cy="303.92" r="2.944"/> <circle cx="322.531" cy="303.92" r="2.944"/> <circle cx="344.434" cy="282.018" r="2.943"/> <path d="M39.333,280.482H8c-4.418,0-8,3.582-8,8V306.4c0,4.418,3.582,8,8,8h31.333c4.418,0,8-3.582,8-8v-17.918 C47.333,284.064,43.751,280.482,39.333,280.482z"/> <path d="M402.426,260.58h-13.853c-4.418,0-8,3.582-8,8v17.918c0,4.418,3.582,8,8,8h13.853c4.418,0,8-3.582,8-8V268.58 C410.426,264.162,406.844,260.58,402.426,260.58z"/> <path d="M254.52,97.015c0-5.162-4.184-9.346-9.346-9.346H125.731c-5.162,0-9.346,4.184-9.346,9.346v4.378H254.52V97.015z"/> <rect x="52.009" y="94.531" width="26.501" height="6.862"/> <rect x="47.085" y="82.451" width="36.349" height="9.197"/> <path d="M6.82,272.095h3.205V243.83H6.82c-2.092,0-3.787,1.695-3.787,3.787v20.691C3.033,270.399,4.728,272.095,6.82,272.095z"/> <path d="M404.027,253.651v-14.353c0-1.451-1.176-2.627-2.627-2.627h-2.224v19.607h2.224 C402.851,256.279,404.027,255.102,404.027,253.651z"/> <rect x="186.354" y="189.369" style="fill:#ffffff;" width="2.99" height="40.57"/> </g> <g> <path d="M392.79,227.966c-4.806-3.495-34.514-18.786-34.514-18.786l-32.803-79.949H12.947v148.251h29.386c4.419,0,8,3.582,8,8 v7.579H81.64c0-21.663,17.562-39.225,39.225-39.225c21.664,0,39.226,17.562,39.226,39.225h134.168 c0-21.663,17.561-39.225,39.225-39.225c17.391,0,32.129,11.321,37.27,26.993h6.821v-15.249c0-4.418,3.582-8,8-8h12.022 c0-5.311,0-10.312,0-13.449C397.596,234.519,397.596,231.46,392.79,227.966z M174.898,153.624h10.79l25.283,22.791h-15.692 L174.898,153.624z M176.32,176.415h-17.386l-9.027-22.791h11.954L176.32,176.415z M68.56,148.837h122.949 c0.828,0,1.5,0.671,1.5,1.5c0,0.828-0.672,1.499-1.5,1.499H68.56c-0.828,0-1.5-0.671-1.5-1.499 C67.06,149.508,67.731,148.837,68.56,148.837z M139.341,176.415h-10.686h-0.005h-7.923l2.907-22.791h5.016h0.005h7.779 L139.341,176.415z M110.162,153.624l-9.028,22.791H83.748l14.459-22.791H110.162z M74.38,153.624h10.79l-20.381,22.791H49.097 L74.38,153.624z M21.674,146.09c0-3.309,2.683-5.992,5.992-5.992c3.309,0,5.991,2.683,5.991,5.992 c0,3.309-2.682,5.992-5.991,5.992C24.357,152.081,21.674,149.399,21.674,146.09z M48.333,262.081H29.66 c-2.578,0-4.667-2.089-4.667-4.667c0-2.577,2.089-4.667,4.667-4.667h18.673c2.577,0,4.667,2.089,4.667,4.667 C53,259.992,50.91,262.081,48.333,262.081z M201.14,238.249H58.928c-1.468,0-2.658-1.19-2.658-2.658 c0-1.468,1.191-2.658,2.658-2.658H201.14c1.468,0,2.658,1.19,2.658,2.658C203.798,237.059,202.608,238.249,201.14,238.249z M70.724,229.939v-40.57h2.99v40.57H70.724z M119.061,211.439v-6.352c0-1.267,1.027-2.294,2.294-2.294 c1.267,0,2.293,1.027,2.293,2.294v6.352c0,1.267-1.027,2.294-2.293,2.294C120.088,213.733,119.061,212.706,119.061,211.439z M128.539,229.939v-40.57h2.991v40.57H128.539z M186.354,229.939v-40.57h2.99v40.57H186.354z M197.719,189.266 c-3.813,0-7.241-1.278-9.669-3.316c-2.429,2.038-5.857,3.316-9.67,3.316c-3.812,0-7.241-1.278-9.669-3.316 c-2.429,2.038-5.857,3.316-9.67,3.316c-4.036,0-7.646-1.431-10.089-3.683c-2.442,2.252-6.053,3.683-10.089,3.683 c-3.596,0-6.853-1.137-9.249-2.975c-2.397,1.838-5.654,2.975-9.25,2.975c-3.812,0-7.241-1.278-9.669-3.316 c-2.428,2.038-5.857,3.316-9.669,3.316s-7.241-1.278-9.67-3.316c-2.428,2.038-5.857,3.316-9.669,3.316 c-3.812,0-7.241-1.278-9.669-3.316c-2.428,2.038-5.858,3.316-9.67,3.316c-7.357,0-13.322-4.736-13.322-10.577h19.339h7.304h12.034 h7.305h12.034h7.304h11.194h8.144h12.034h6.465h12.874h7.305h12.034h7.304h19.339 C211.041,184.531,205.077,189.266,197.719,189.266z M303.782,238.305c0,8.559-1.659,9.838-4.171,11.774 c-1.61,1.241-15.243,11.309-40.521,29.927l-2.364,1.743c-1.236,0.922-4.133,3.082-7.049,3.082c-5.407,0-8.149-3.366-8.149-10.006 V148.854c0-5.716,4.651-10.367,10.368-10.367h41.52c5.717,0,10.367,4.651,10.367,10.367V238.305z M344.648,206.784h-26.633 c-1.226,0-2.221-0.981-2.221-2.191v-64.096c0-1.796,1.218-2.535,2.209-2.111c0.518,0.221,0.925,0.976,1.482,1.85 c0.613,0.964,25.948,61.965,26.318,62.739c0.321,0.675,0.671,1.628,0.636,2.331C346.403,206.044,345.875,206.784,344.648,206.784z M381.335,238.081h-14.636c-1.657,0-3-1.343-3-3c0-1.657,1.343-3,3-3h14.636c1.657,0,3,1.343,3,3 C384.335,236.738,382.992,238.081,381.335,238.081z"/> </g> </g> </g>
</svg>