<!DOCTYPE svg PUBLIC "-//W3C//DTD SVG 1.1//EN" "http://www.w3.org/Graphics/SVG/1.1/DTD/svg11.dtd">
<!-- Uploaded to: SVG Repo, www.svgrepo.com, Transformed by: SVG Repo Mixer Tools -->
<svg version="1.1" id="Layer_1" xmlns="http://www.w3.org/2000/svg" xmlns:xlink="http://www.w3.org/1999/xlink" viewBox="0 0 512.00 512.00" xml:space="preserve" width="170px" height="170px" fill="#000000" stroke="#000000">
<g id="SVGRepo_bgCarrier" stroke-width="0"/>
<g id="SVGRepo_tracerCarrier" stroke-linecap="round" stroke-linejoin="round"/>
<g id="SVGRepo_iconCarrier"> <polygon style="fill:#f5f5f5;" points="168.005,359.915 344.208,359.915 344.208,190.137 465.174,190.137 426.935,106.309 44.973,106.309 7.564,233.112 35.847,322.257 "/> <polygon style="fill:#bee3f3;" points="381.508,359.915 344.208,359.915 344.208,190.137 414.241,190.137 452.441,250.64 504.436,275.026 504.436,359.915 473.057,359.915 "/> <g style="opacity:0.3;"> <polygon style="fill:#A5173F;" points="35.847,322.257 168.005,359.915 344.208,359.915 344.208,233.112 7.564,233.112 "/> </g> <g> <rect x="74.842" y="150.975" style="fill:#bee3f3;" width="94.771" height="53.895"/> <rect x="209.53" y="150.975" style="fill:#bee3f3;" width="94.771" height="171.287"/> </g> <g style="opacity:0.86;"> <polygon style="fill:#FFFFFF;" points="414.241,190.137 344.208,190.137 344.208,250.64 452.441,250.64 "/> </g> <rect x="121.305" y="150.975" style="opacity:0.3;fill:#A5173F;enable-background:new ;" width="48.306" height="53.895"/> <polygon style="fill:#f5f5f5;" points="504.436,299.496 504.436,275.026 473.056,260.308 473.056,299.496 "/> <polygon style="fill:#ffffff;" points="168.005,359.915 344.208,359.915 344.208,322.262 151.034,322.262 96.21,322.262 8.494,322.262 8.494,359.915 76.456,359.915 "/> <g> <rect x="256.91" y="150.975" style="opacity:0.3;fill:#A5173F;enable-background:new ;" width="47.384" height="171.287"/> <polygon style="opacity:0.3;fill:#A5173F;enable-background:new ;" points="244.136,359.915 504.436,359.915 504.436,341.089 219.065,341.089 138.075,341.089 8.494,341.089 8.494,359.915 108.892,359.915 "/> </g> <circle style="fill:#403E43;" cx="122.233" cy="359.91" r="45.777"/> <circle style="fill:#D8D7D9;" cx="122.233" cy="359.91" r="19.59"/> <circle style="fill:#403E43;" cx="427.279" cy="359.91" r="45.777"/> <circle style="fill:#D8D7D9;" cx="427.279" cy="359.91" r="19.59"/> <path d="M507.647,268.178l-49.991-23.447l-29.694-47.03h37.212c2.574,0,4.971-1.309,6.363-3.473 c1.392-2.164,1.587-4.888,0.519-7.229l-38.239-83.828c-1.229-2.696-3.919-4.425-6.881-4.425H44.973 c-3.353,0-6.306,2.207-7.254,5.424L0.348,230.843c-0.006,0.019-0.011,0.039-0.017,0.058l-0.021,0.071 c-0.006,0.021-0.008,0.043-0.014,0.065c-0.084,0.295-0.148,0.599-0.197,0.909c-0.011,0.073-0.024,0.143-0.033,0.216 C0.027,232.474,0,232.79,0,233.113c0,0.015,0.002,0.03,0.002,0.045c0,0.046,0.006,0.092,0.007,0.138 c0.007,0.301,0.033,0.596,0.075,0.886c0.01,0.074,0.021,0.147,0.033,0.221c0.06,0.344,0.136,0.681,0.24,1.007l25.157,79.289H8.494 c-4.178,0-7.564,3.386-7.564,7.564v37.654c0,4.178,3.386,7.564,7.564,7.564h60.944c3.686,25.84,25.95,45.775,52.792,45.775 c26.843,0,49.108-19.934,52.793-45.775h169.185h30.282c3.686,25.84,25.95,45.775,52.793,45.775 c26.842,0,49.107-19.934,52.792-45.775h24.362c4.178,0,7.564-3.386,7.564-7.564v-84.89C512,272.092,510.304,269.423,507.647,268.178 z M496.872,291.933h-16.251v-19.722l16.251,7.622V291.933z M438.72,243.075h-86.949v-45.374h58.3L438.72,243.075z M336.644,352.352 h-161.62c-1.179-8.267-4.256-15.928-8.781-22.526h43.285h94.77h32.347V352.352z M217.091,240.677h79.642v74.021h-79.642 L217.091,240.677L217.091,240.677z M296.733,225.549h-79.642v-67.008h79.642V225.549z M311.86,314.698v-74.021h24.783v74.021H311.86 z M50.628,113.872h371.445l31.338,68.7h-39.169h-70.034c-4.178,0-7.564,3.386-7.564,7.564v35.411H311.86v-74.572 c0-4.178-3.386-7.564-7.564-7.564h-94.77c-4.178,0-7.564,3.386-7.564,7.564v74.572H17.681L50.628,113.872z M17.899,240.677h184.064 v74.021h-50.929c-0.175,0-0.348,0.014-0.52,0.026c-8.205-5.154-17.899-8.148-28.284-8.148c-10.367,0-20.045,2.983-28.242,8.122 H41.384L17.899,240.677z M16.058,329.826h62.161c-4.525,6.598-7.602,14.259-8.781,22.526h-53.38V329.826z M122.23,398.127 c-21.07,0-38.211-17.141-38.211-38.211s17.141-38.212,38.211-38.212s38.212,17.142,38.212,38.212S143.299,398.127,122.23,398.127z M427.282,398.127c-21.065,0-38.204-17.134-38.211-38.198c0-0.004,0.001-0.009,0.001-0.013l-0.001-0.013 c0.007-21.063,17.146-38.199,38.211-38.199c21.07,0,38.211,17.142,38.211,38.212S448.351,398.127,427.282,398.127z M480.074,352.352 c-3.686-25.841-25.95-45.776-52.792-45.776c-26.843,0-49.108,19.934-52.793,45.776h-22.718v-30.09v-64.059h98.984l14.736,6.912 v34.381c0,4.178,3.386,7.564,7.564,7.564h23.815v45.292H480.074z"/> <path d="M74.846,212.436h94.769c4.178,0,7.564-3.386,7.564-7.564v-53.895c0-4.178-3.386-7.564-7.564-7.564H74.846 c-4.178,0-7.564,3.386-7.564,7.564v53.895C67.282,209.049,70.668,212.436,74.846,212.436z M162.051,197.308h-33.178v-38.767h33.178 V197.308z M82.41,158.54h31.334v38.767H82.41V158.54z"/> <path d="M427.282,332.76c-14.974,0-27.155,12.182-27.155,27.155s12.182,27.154,27.155,27.154c14.973,0,27.154-12.181,27.154-27.154 S442.256,332.76,427.282,332.76z M427.282,371.942c-6.632,0-12.028-5.396-12.028-12.027c0-6.632,5.396-12.028,12.028-12.028 c6.631,0,12.027,5.396,12.027,12.028C439.309,366.547,433.913,371.942,427.282,371.942z"/> <path d="M122.23,332.76c-14.973,0-27.154,12.182-27.154,27.155s12.181,27.154,27.154,27.154s27.155-12.181,27.155-27.154 S137.203,332.76,122.23,332.76z M122.23,371.942c-6.631,0-12.027-5.396-12.027-12.027c0-6.632,5.396-12.028,12.027-12.028 c6.632,0,12.028,5.396,12.028,12.028C134.257,366.547,128.862,371.942,122.23,371.942z"/> </g>
</svg>