<!DOCTYPE svg PUBLIC "-//W3C//DTD SVG 1.1//EN" "http://www.w3.org/Graphics/SVG/1.1/DTD/svg11.dtd">
<!-- Uploaded to: SVG Repo, www.svgrepo.com, Transformed by: SVG Repo Mixer Tools -->
<svg version="1.1" id="Layer_1" xmlns="http://www.w3.org/2000/svg" xmlns:xlink="http://www.w3.org/1999/xlink" viewBox="0 0 512.004 512.004" xml:space="preserve" width="180px" height="180px" fill="#000000">
<g id="SVGRepo_bgCarrier" stroke-width="0"/>
<g id="SVGRepo_tracerCarrier" stroke-linecap="round" stroke-linejoin="round"/>
<g id="SVGRepo_iconCarrier"> <rect x="119.958" y="92.268" style="fill:#F7931E;" width="103.966" height="31.991"/> <rect x="119.958" y="68.271" style="fill:#FBB03B;" width="103.966" height="23.993"/> <g> <rect y="388.543" style="fill:#BDCCD4;" width="39.99" height="23.627"/> <rect x="175.95" y="388.543" style="fill:#BDCCD4;" width="287.912" height="23.627"/> </g> <path style="fill:#8E999F;" d="M455.859,388.177V231.53c0-45.994-37.285-83.278-83.278-83.278H91.276 c-45.993,0-83.278,37.285-83.278,83.278v156.648H63.98"/> <circle style="fill:#FFFFFF;" cx="119.958" cy="404.168" r="15.995"/> <path style="fill:#BDCCD4;" d="M372.581,147.907h-63.98c45.993,0,83.043,37.628,83.043,83.621v156.044h63.841V231.529 C455.485,185.536,418.575,147.907,372.581,147.907z"/> <polygon style="fill:#F7931E;" points="168.724,283.962 168.724,308.033 7.552,308.033 7.552,387.572 200.121,387.572 200.121,283.962 "/> <path style="fill:#8E999F;" d="M119.963,364.185c-22.085,0-39.987,17.904-39.987,39.987c0,22.085,17.904,39.987,39.987,39.987 s39.987-17.904,39.987-39.987C159.951,382.087,142.047,364.185,119.963,364.185z M119.963,420.167 c-8.834,0-15.995-7.162-15.995-15.995c0-8.834,7.162-15.995,15.995-15.995s15.995,7.161,15.995,15.995 C135.958,413.006,128.796,420.167,119.963,420.167z"/> <polygon style="fill:#F7931E;" points="312.105,283.962 312.105,308.033 424.088,308.033 424.088,283.962 455.485,283.962 455.485,387.572 279.661,387.572 279.661,283.962 "/> <polyline style="fill:#FBB03B;" points="407.343,308.033 424.088,308.033 424.088,283.962 455.485,283.962 455.485,387.572 407.343,387.572 "/> <rect x="199.937" y="212.227" style="fill:#C7B299;" width="79.979" height="175.95"/> <g> <rect x="7.998" y="212.227" style="fill:#A9DDF3;" width="159.948" height="95.971"/> <rect x="311.9" y="220.233" style="fill:#A9DDF3;" width="111.962" height="87.975"/> </g> <path d="M119.963,452.009c-26.378,0-47.838-21.459-47.838-47.837c0-26.378,21.46-47.837,47.838-47.837s47.837,21.46,47.837,47.837 C167.8,430.55,146.34,452.009,119.963,452.009z M119.963,372.034c-17.722,0-32.139,14.418-32.139,32.138 c0,17.722,14.418,32.138,32.139,32.138s32.138-14.417,32.138-32.138C152.102,386.452,137.684,372.034,119.963,372.034z"/> <rect x="496.306" y="339.427" style="fill:#FBB03B;" width="15.699" height="16.745"/> <path d="M119.963,428.016c-13.148,0-23.845-10.697-23.845-23.844c0-13.148,10.697-23.845,23.845-23.845 c13.148,0,23.844,10.697,23.844,23.845S133.11,428.016,119.963,428.016z M119.963,396.027c-4.492,0-8.147,3.655-8.147,8.147 s3.655,8.145,8.147,8.145c4.491,0,8.145-3.655,8.145-8.145C128.109,399.68,124.454,396.027,119.963,396.027z"/> <g> <rect x="215.824" y="292.331" style="fill:#FFFFFF;" width="16.745" height="15.699"/> <rect x="416.766" y="356.172" style="fill:#FFFFFF;" width="15.699" height="15.699"/> <rect x="391.648" y="356.172" style="fill:#FFFFFF;" width="15.699" height="15.699"/> <rect x="367.577" y="356.172" style="fill:#FFFFFF;" width="15.699" height="15.699"/> </g> <rect x="0.226" y="404.314" width="39.77" height="15.699"/> <rect x="176.054" y="404.314" width="287.807" height="15.699"/> <rect x="160.356" y="84.063" width="24.071" height="15.699"/> <path d="M496.301,364.548v15.699h-32.592V231.529c0-50.248-40.879-91.127-91.127-91.127h-37.453v-8.193h16.745V116.51H232.565 V59.995H112.209v56.515H71.393v15.699h16.745v8.252c-48.8,1.66-87.99,41.87-87.99,91.068v164.497H63.98v-15.699H15.847v-63.921 H176.05v-25.118h15.699v80.586h15.699V220.121h63.841v151.753h15.699v-80.586h17.068v24.763h127.664v-24.763h16.292v88.959H176.05 v15.699H512v-31.397H496.301z M127.908,99.765h24.071V84.066h-24.071v-8.373h88.959v8.373h-25.118v15.699h25.118v16.745h-88.959 V99.765z M103.837,132.209h215.594v8.193H103.837V132.209z M160.352,300.707H15.847v-69.178c0-3.878,0.295-7.687,0.862-11.408 h143.642V300.707z M416.02,300.352h-96.267V220.08h96.267V300.352z M431.718,275.589v-71.208H304.054v71.208h-17.068v-71.167 h-95.238v71.167H176.05v-71.167H20.905c10.914-28.234,38.332-48.322,70.37-48.322h281.306c41.592,0,75.429,33.838,75.429,75.429 v44.061H431.718z"/> <g> <polygon style="fill:#FFFFFF;" points="96.511,291.288 23.251,291.288 23.251,259.891 38.949,259.891 38.949,275.589 96.511,275.589 "/> <rect x="103.841" y="275.586" style="fill:#FFFFFF;" width="24.071" height="15.699"/> <rect x="335.133" y="275.586" style="fill:#FFFFFF;" width="40.816" height="15.699"/> <rect x="383.276" y="275.586" style="fill:#FFFFFF;" width="16.745" height="15.699"/> </g> </g>
</svg>