<!DOCTYPE svg PUBLIC "-//W3C//DTD SVG 1.1//EN" "http://www.w3.org/Graphics/SVG/1.1/DTD/svg11.dtd">
<!-- Uploaded to: SVG Repo, www.svgrepo.com, Transformed by: SVG Repo Mixer Tools -->
<svg fill="#000000" width="170px" height="170px" viewBox="0 0 24 24" id="phone-alert" data-name="Flat Line" xmlns="http://www.w3.org/2000/svg" class="icon flat-line">
<g id="SVGRepo_bgCarrier" stroke-width="0"/>
<g id="SVGRepo_tracerCarrier" stroke-linecap="round" stroke-linejoin="round"/>
<g id="SVGRepo_iconCarrier">
<path id="secondary" d="M17,3H14l-.5,2h-3L10,3H7A1,1,0,0,0,6,4V20a1,1,0,0,0,1,1H17a1,1,0,0,0,1-1V4A1,1,0,0,0,17,3Z" style="fill: #f2d9d9; stroke-width: 2;"/>
<path id="primary" d="M17,21H7a1,1,0,0,1-1-1V4A1,1,0,0,1,7,3H17a1,1,0,0,1,1,1V20A1,1,0,0,1,17,21ZM14,3H10l.5,2h3ZM12,9v3" style="fill: none; stroke: #739396; stroke-linecap: round; stroke-linejoin: round; stroke-width: 2;"/>
<line id="primary-upstroke" x1="11.95" y1="16.5" x2="12.05" y2="16.5" style="fill: none; stroke: #739396; stroke-linecap: round; stroke-linejoin: round; stroke-width: 2.5;"/>
</g>
</svg>